<svg xmlns="http://www.w3.org/2000/svg" xmlns:svg="http://www.w3.org/2000/svg" id="svg107" width="936.51" height="707.22" data-name="Layer 1" version="1.1" viewBox="0 0 936.51 707.22"><defs id="defs9"><linearGradient id="c3b6ae59-f5c8-462f-a7a0-99e79fdd0e5d-322" x1="326.5" x2="326.5" y1="672.4" y2="143.43" gradientUnits="userSpaceOnUse"><stop id="stop2" offset="0" stop-color="gray" stop-opacity=".25"/><stop id="stop4" offset=".54" stop-color="gray" stop-opacity=".12"/><stop id="stop6" offset="1" stop-color="gray" stop-opacity=".1"/></linearGradient></defs><title id="title11">Lighthouse</title><polygon id="polygon13" fill="#3ad29f" points="570.22 408.02 580.26 442.79 590.3 477.56 570.22 477.56 550.14 477.56 560.18 442.79 570.22 408.02" style="fill:#56bfa6"/><polygon id="polygon15" fill="#3ad29f" points="589.99 403.31 600.02 438.08 610.06 472.86 589.99 472.86 569.91 472.86 579.95 438.08 589.99 403.31" style="fill:#56bfa6"/><polygon id="polygon17" fill="#3ad29f" points="609.75 403.31 619.79 438.08 629.83 472.86 609.75 472.86 589.67 472.86 599.71 438.08 609.75 403.31" style="fill:#56bfa6"/><polygon id="polygon19" fill="#3ad29f" points="762.4 424.54 772.44 459.31 782.48 494.09 762.4 494.09 742.32 494.09 752.36 459.31 762.4 424.54" style="fill:#56bfa6"/><polygon id="polygon21" fill="#3ad29f" points="120.25 390.33 137.44 422.18 154.63 454.03 135.02 458.29 115.4 462.56 117.82 426.44 120.25 390.33" style="fill:#56bfa6"/><polygon id="polygon23" fill="#e0e0e0" points="0 707.09 38 528.09 66 491.09 94 443.09 146 412.09 185 390.09 201 438.09 231.74 458.67 251 487.09 281 477.09 319 446.09 348 438.09 389 412.09 427 422.09 466 408.09 492 390.09 517 420.09 531 459.09 534 473.09 570 473.09 610 473.09 635 446.09 674 438.09 712 438.09 738 446.09 784 459.09 886 707.09 0 707.09" style="fill:#cdcdd4"/><g id="g31" opacity=".3" style="fill:#9e9eab"><rect id="rect25" width="154.36" height="30.12" x="145.62" y="178.78" fill="#e0e0e0" rx="15.06" ry="15.06" style="fill:#9e9eab"/><rect id="rect27" width="154.36" height="30.12" x="107.97" y="208.9" fill="#e0e0e0" rx="15.06" ry="15.06" style="fill:#9e9eab"/><rect id="rect29" width="154.36" height="30.12" x="145.62" y="239.02" fill="#e0e0e0" rx="15.06" ry="15.06" style="fill:#9e9eab"/></g><g id="g35" opacity=".5"><polygon id="polygon33" fill="url(#c3b6ae59-f5c8-462f-a7a0-99e79fdd0e5d-322)" points="427 672.4 226 672.4 237.77 143.43 415.23 143.43 427 672.4"/></g><polygon id="polygon37" fill="#fff" points="423.08 672.4 230.13 672.4 241.42 143.43 411.78 143.43 423.08 672.4" style="fill:#f0f0f2"/><g id="g41" opacity=".05" transform="translate(1)" style="fill:#111"><polygon id="polygon39" points="230.13 672.4 241.42 143.43 264.95 143.43 276.25 672.4" style="fill:#111"/></g><path id="path43" fill="#8c56bf" d="M200.95,472.86H453.2a0,0,0,0,1,0,0v0a35.77,35.77,0,0,1-35.77,35.77H236.72a35.77,35.77,0,0,1-35.77-35.77v0a0,0,0,0,1,0,0Z"/><path id="path45" fill="#8c56bf" d="M200.95,295H453.2a0,0,0,0,1,0,0v0a35.77,35.77,0,0,1-35.77,35.77H236.72A35.77,35.77,0,0,1,200.95,295v0A0,0,0,0,1,200.95,295Z"/><circle id="circle47" cx="327.07" cy="219.2" r="46.12" fill="#ffffa5" style="fill:#fee8af"/><rect id="rect49" width="185.42" height="2.82" x="233.89" y="508.62" opacity=".1"/><rect id="rect51" width="178.83" height="1.88" x="236.72" y="330.73" opacity=".1"/><path id="path53" fill="#e0e0e0" d="M510.37,768.79h-59.3V687.37a29.65,29.65,0,0,1,29.65-29.65h0a29.66,29.66,0,0,1,29.65,29.65Z" transform="translate(-132.47 -96.39)" style="fill:#cdcdd4"/><path id="path55" fill="#4d8af0" d="M1015.8,803.61H132.93s57-131,143.4-154.18a98.17,98.17,0,0,1,38.27-2.71c20.84,2.65,39.69,13.58,53.08,29.77C396,710.73,482.73,785.34,656.26,700.08c0,0,62.12-62.12,161.89,11.29a191.58,191.58,0,0,0,19,8.2c30.61,11.57,91.84,27.69,135.37-6.32C1032.75,666.19,1015.8,803.61,1015.8,803.61Z" transform="translate(-132.47 -96.39)" style="fill:#8ac2fb"/><g id="g63" opacity=".3" style="fill:#9e9eab"><rect id="rect57" width="154.36" height="30.12" x="557.62" y="39.78" fill="#e0e0e0" rx="15.06" ry="15.06" style="fill:#9e9eab"/><rect id="rect59" width="154.36" height="30.12" x="519.97" y="69.9" fill="#e0e0e0" rx="15.06" ry="15.06" style="fill:#9e9eab"/><rect id="rect61" width="154.36" height="30.12" x="557.62" y="100.02" fill="#e0e0e0" rx="15.06" ry="15.06" style="fill:#9e9eab"/></g><g id="g71" opacity=".3" style="fill:#9e9eab"><rect id="rect65" width="154.36" height="30.12" x="685.62" y="249.78" fill="#e0e0e0" rx="15.06" ry="15.06" style="fill:#9e9eab"/><rect id="rect67" width="154.36" height="30.12" x="647.97" y="279.9" fill="#e0e0e0" rx="15.06" ry="15.06" style="fill:#9e9eab"/><rect id="rect69" width="154.36" height="30.12" x="685.62" y="310.02" fill="#e0e0e0" rx="15.06" ry="15.06" style="fill:#9e9eab"/></g><g id="g77" opacity=".3" style="fill:#474747"><path id="path73" fill="#030b44" d="M767.32,355.59h32.94S787.85,377.55,767.32,355.59Z" transform="translate(-132.47 -96.39)" style="fill:#474747"/><path id="path75" fill="#030b44" d="M769.31,364.93l21.6-24.87S799.35,363.83,769.31,364.93Z" transform="translate(-132.47 -96.39)" style="fill:#474747"/></g><g id="g83" opacity=".3" style="fill:#474747"><path id="path79" fill="#030b44" d="M649.67,424.3h32.94S670.2,446.26,649.67,424.3Z" transform="translate(-132.47 -96.39)" style="fill:#474747"/><path id="path81" fill="#030b44" d="M651.66,433.64l21.59-24.87S681.7,432.54,651.66,433.64Z" transform="translate(-132.47 -96.39)" style="fill:#474747"/></g><g id="g89" opacity=".3" style="fill:#474747"><path id="path85" fill="#030b44" d="M607.06,166.4h35.33S629.08,190,607.06,166.4Z" transform="translate(-132.47 -96.39)" style="fill:#474747"/><path id="path87" fill="#030b44" d="M609.19,176.43l23.17-26.69S641.42,175.24,609.19,176.43Z" transform="translate(-132.47 -96.39)" style="fill:#474747"/></g><g id="g93" opacity=".05"><path id="path91" d="M364.21,604.87c1,.09,2.05.14,3.09.14h36l-.76-35.76H365Z" transform="translate(-132.47 -96.39)"/></g><g id="g97" opacity=".05"><polygon id="polygon95" points="268.19 294.97 238.19 294.97 237.42 330.73 268.95 330.73 268.19 294.97"/></g><path id="path99" fill="#4d8af0" d="M1067.53,556.56a1.5,1.5,0,0,0,0-3,1.5,1.5,0,0,0,0,3Z" transform="translate(-132.47 -96.39)"/><path id="path101" fill="#8c56bf" d="M586.14,202.6c0,35.19-56.89,63.71-127.07,63.71S332,237.79,332,202.6,388.89,96.39,459.07,96.39,586.14,167.42,586.14,202.6Z" transform="translate(-132.47 -96.39)" style="fill:#8c56bf"/><g id="g105" opacity=".05" style="fill:#111"><path id="path103" d="M331.26,202.6c0,35.19,56.89,63.71,127.07,63.71V96.39C388.15,96.39,331.26,167.42,331.26,202.6Z" transform="translate(-132.47 -96.39)" style="fill:#111"/></g></svg>