<?xml version="1.0" encoding="UTF-8" standalone="no"?>
<svg
   data-name="Layer 1"
   width="936.51"
   height="707.22"
   viewBox="0 0 936.51 707.22"
   version="1.1"
   id="svg107"
   sodipodi:docname="up-to-date.svg"
   inkscape:version="1.1.2 (0a00cf5339, 2022-02-04)"
   xmlns:inkscape="http://www.inkscape.org/namespaces/inkscape"
   xmlns:sodipodi="http://sodipodi.sourceforge.net/DTD/sodipodi-0.dtd"
   xmlns="http://www.w3.org/2000/svg"
   xmlns:svg="http://www.w3.org/2000/svg">
  <sodipodi:namedview
     id="namedview109"
     pagecolor="#ffffff"
     bordercolor="#666666"
     borderopacity="1.0"
     inkscape:pageshadow="2"
     inkscape:pageopacity="0.0"
     inkscape:pagecheckerboard="0"
     showgrid="false"
     inkscape:zoom="0.92757562"
     inkscape:cx="468.42542"
     inkscape:cy="353.60999"
     inkscape:current-layer="svg107" />
  <defs
     id="defs9">
    <linearGradient
       id="c3b6ae59-f5c8-462f-a7a0-99e79fdd0e5d-322"
       x1="326.5"
       y1="672.4"
       x2="326.5"
       y2="143.43"
       gradientUnits="userSpaceOnUse">
      <stop
         offset="0"
         stop-color="gray"
         stop-opacity="0.25"
         id="stop2" />
      <stop
         offset="0.54"
         stop-color="gray"
         stop-opacity="0.12"
         id="stop4" />
      <stop
         offset="1"
         stop-color="gray"
         stop-opacity="0.1"
         id="stop6" />
    </linearGradient>
  </defs>
  <title
     id="title11">Lighthouse</title>
  <polygon
     points="570.22 408.02 580.26 442.79 590.3 477.56 570.22 477.56 550.14 477.56 560.18 442.79 570.22 408.02"
     fill="#3ad29f"
     id="polygon13"
     style="fill:#56bfa6" />
  <polygon
     points="589.99 403.31 600.02 438.08 610.06 472.86 589.99 472.86 569.91 472.86 579.95 438.08 589.99 403.31"
     fill="#3ad29f"
     id="polygon15"
     style="fill:#56bfa6" />
  <polygon
     points="609.75 403.31 619.79 438.08 629.83 472.86 609.75 472.86 589.67 472.86 599.71 438.08 609.75 403.31"
     fill="#3ad29f"
     id="polygon17"
     style="fill:#56bfa6" />
  <polygon
     points="762.4 424.54 772.44 459.31 782.48 494.09 762.4 494.09 742.32 494.09 752.36 459.31 762.4 424.54"
     fill="#3ad29f"
     id="polygon19"
     style="fill:#56bfa6" />
  <polygon
     points="120.25 390.33 137.44 422.18 154.63 454.03 135.02 458.29 115.4 462.56 117.82 426.44 120.25 390.33"
     fill="#3ad29f"
     id="polygon21"
     style="fill:#56bfa6" />
  <polygon
     points="0 707.09 38 528.09 66 491.09 94 443.09 146 412.09 185 390.09 201 438.09 231.74 458.67 251 487.09 281 477.09 319 446.09 348 438.09 389 412.09 427 422.09 466 408.09 492 390.09 517 420.09 531 459.09 534 473.09 570 473.09 610 473.09 635 446.09 674 438.09 712 438.09 738 446.09 784 459.09 886 707.09 0 707.09"
     fill="#e0e0e0"
     id="polygon23"
     style="fill:#cdcdd4" />
  <g
     opacity="0.3"
     id="g31"
     style="fill:#9e9eab">
    <rect
       x="145.62"
       y="178.78"
       width="154.36"
       height="30.12"
       rx="15.06"
       ry="15.06"
       fill="#e0e0e0"
       id="rect25"
       style="fill:#9e9eab" />
    <rect
       x="107.97"
       y="208.9"
       width="154.36"
       height="30.12"
       rx="15.06"
       ry="15.06"
       fill="#e0e0e0"
       id="rect27"
       style="fill:#9e9eab" />
    <rect
       x="145.62"
       y="239.02"
       width="154.36"
       height="30.12"
       rx="15.06"
       ry="15.06"
       fill="#e0e0e0"
       id="rect29"
       style="fill:#9e9eab" />
  </g>
  <g
     opacity="0.5"
     id="g35">
    <polygon
       points="427 672.4 226 672.4 237.77 143.43 415.23 143.43 427 672.4"
       fill="url(#c3b6ae59-f5c8-462f-a7a0-99e79fdd0e5d-322)"
       id="polygon33" />
  </g>
  <polygon
     points="423.08 672.4 230.13 672.4 241.42 143.43 411.78 143.43 423.08 672.4"
     fill="#fff"
     id="polygon37"
     style="fill:#f0f0f2" />
  <g
     opacity="0.05"
     id="g41"
     style="fill:#111111"
     transform="translate(1)">
    <polygon
       points="230.13,672.4 241.42,143.43 264.95,143.43 276.25,672.4 "
       id="polygon39"
       style="fill:#111111" />
  </g>
  <path
     d="M200.95,472.86H453.2a0,0,0,0,1,0,0v0a35.77,35.77,0,0,1-35.77,35.77H236.72a35.77,35.77,0,0,1-35.77-35.77v0a0,0,0,0,1,0,0Z"
     fill="#8c56bf"
     id="path43" />
  <path
     d="M200.95,295H453.2a0,0,0,0,1,0,0v0a35.77,35.77,0,0,1-35.77,35.77H236.72A35.77,35.77,0,0,1,200.95,295v0A0,0,0,0,1,200.95,295Z"
     fill="#8c56bf"
     id="path45" />
  <circle
     cx="327.07"
     cy="219.2"
     r="46.12"
     fill="#ffffa5"
     id="circle47"
     style="fill:#fee8af" />
  <rect
     x="233.89"
     y="508.62"
     width="185.42"
     height="2.82"
     opacity="0.1"
     id="rect49" />
  <rect
     x="236.72"
     y="330.73"
     width="178.83"
     height="1.88"
     opacity="0.1"
     id="rect51" />
  <path
     d="M510.37,768.79h-59.3V687.37a29.65,29.65,0,0,1,29.65-29.65h0a29.66,29.66,0,0,1,29.65,29.65Z"
     transform="translate(-132.47 -96.39)"
     fill="#e0e0e0"
     id="path53"
     style="fill:#cdcdd4" />
  <path
     d="M1015.8,803.61H132.93s57-131,143.4-154.18a98.17,98.17,0,0,1,38.27-2.71c20.84,2.65,39.69,13.58,53.08,29.77C396,710.73,482.73,785.34,656.26,700.08c0,0,62.12-62.12,161.89,11.29a191.58,191.58,0,0,0,19,8.2c30.61,11.57,91.84,27.69,135.37-6.32C1032.75,666.19,1015.8,803.61,1015.8,803.61Z"
     transform="translate(-132.47 -96.39)"
     fill="#4d8af0"
     id="path55"
     style="fill:#8ac2fb" />
  <g
     opacity="0.3"
     id="g63"
     style="fill:#9e9eab">
    <rect
       x="557.62"
       y="39.78"
       width="154.36"
       height="30.12"
       rx="15.06"
       ry="15.06"
       fill="#e0e0e0"
       id="rect57"
       style="fill:#9e9eab" />
    <rect
       x="519.97"
       y="69.9"
       width="154.36"
       height="30.12"
       rx="15.06"
       ry="15.06"
       fill="#e0e0e0"
       id="rect59"
       style="fill:#9e9eab" />
    <rect
       x="557.62"
       y="100.02"
       width="154.36"
       height="30.12"
       rx="15.06"
       ry="15.06"
       fill="#e0e0e0"
       id="rect61"
       style="fill:#9e9eab" />
  </g>
  <g
     opacity="0.3"
     id="g71"
     style="fill:#9e9eab">
    <rect
       x="685.62"
       y="249.78"
       width="154.36"
       height="30.12"
       rx="15.06"
       ry="15.06"
       fill="#e0e0e0"
       id="rect65"
       style="fill:#9e9eab" />
    <rect
       x="647.97"
       y="279.9"
       width="154.36"
       height="30.12"
       rx="15.06"
       ry="15.06"
       fill="#e0e0e0"
       id="rect67"
       style="fill:#9e9eab" />
    <rect
       x="685.62"
       y="310.02"
       width="154.36"
       height="30.12"
       rx="15.06"
       ry="15.06"
       fill="#e0e0e0"
       id="rect69"
       style="fill:#9e9eab" />
  </g>
  <g
     opacity="0.3"
     id="g77"
     style="fill:#474747">
    <path
       d="M767.32,355.59h32.94S787.85,377.55,767.32,355.59Z"
       transform="translate(-132.47 -96.39)"
       fill="#030b44"
       id="path73"
       style="fill:#474747" />
    <path
       d="M769.31,364.93l21.6-24.87S799.35,363.83,769.31,364.93Z"
       transform="translate(-132.47 -96.39)"
       fill="#030b44"
       id="path75"
       style="fill:#474747" />
  </g>
  <g
     opacity="0.3"
     id="g83"
     style="fill:#474747">
    <path
       d="M649.67,424.3h32.94S670.2,446.26,649.67,424.3Z"
       transform="translate(-132.47 -96.39)"
       fill="#030b44"
       id="path79"
       style="fill:#474747" />
    <path
       d="M651.66,433.64l21.59-24.87S681.7,432.54,651.66,433.64Z"
       transform="translate(-132.47 -96.39)"
       fill="#030b44"
       id="path81"
       style="fill:#474747" />
  </g>
  <g
     opacity="0.3"
     id="g89"
     style="fill:#474747">
    <path
       d="M607.06,166.4h35.33S629.08,190,607.06,166.4Z"
       transform="translate(-132.47 -96.39)"
       fill="#030b44"
       id="path85"
       style="fill:#474747" />
    <path
       d="M609.19,176.43l23.17-26.69S641.42,175.24,609.19,176.43Z"
       transform="translate(-132.47 -96.39)"
       fill="#030b44"
       id="path87"
       style="fill:#474747" />
  </g>
  <g
     opacity="0.05"
     id="g93">
    <path
       d="M364.21,604.87c1,.09,2.05.14,3.09.14h36l-.76-35.76H365Z"
       transform="translate(-132.47 -96.39)"
       id="path91" />
  </g>
  <g
     opacity="0.05"
     id="g97">
    <polygon
       points="268.19 294.97 238.19 294.97 237.42 330.73 268.95 330.73 268.19 294.97"
       id="polygon95" />
  </g>
  <path
     d="M1067.53,556.56a1.5,1.5,0,0,0,0-3,1.5,1.5,0,0,0,0,3Z"
     transform="translate(-132.47 -96.39)"
     fill="#4d8af0"
     id="path99" />
  <path
     d="M586.14,202.6c0,35.19-56.89,63.71-127.07,63.71S332,237.79,332,202.6,388.89,96.39,459.07,96.39,586.14,167.42,586.14,202.6Z"
     transform="translate(-132.47 -96.39)"
     fill="#8c56bf"
     id="path101"
     style="fill:#8c56bf" />
  <g
     opacity="0.05"
     id="g105"
     style="fill:#111111">
    <path
       d="M331.26,202.6c0,35.19,56.89,63.71,127.07,63.71V96.39C388.15,96.39,331.26,167.42,331.26,202.6Z"
       transform="translate(-132.47 -96.39)"
       id="path103"
       style="fill:#111111" />
  </g>
</svg>
