<?xml version="1.0" encoding="UTF-8" standalone="no"?>
<svg
   id="svg4"
   width="16"
   height="16"
   version="1.1"
   sodipodi:docname="explore-filled-symbolic.svg"
   inkscape:version="1.2.2 (b0a8486541, 2022-12-01)"
   xmlns:inkscape="http://www.inkscape.org/namespaces/inkscape"
   xmlns:sodipodi="http://sodipodi.sourceforge.net/DTD/sodipodi-0.dtd"
   xmlns="http://www.w3.org/2000/svg"
   xmlns:svg="http://www.w3.org/2000/svg">
  <defs
     id="defs6" />
  <sodipodi:namedview
     id="namedview4"
     pagecolor="#ffffff"
     bordercolor="#000000"
     borderopacity="0.25"
     inkscape:showpageshadow="2"
     inkscape:pageopacity="0.0"
     inkscape:pagecheckerboard="0"
     inkscape:deskcolor="#d1d1d1"
     showgrid="false"
     inkscape:zoom="48.875"
     inkscape:cx="8"
     inkscape:cy="8"
     inkscape:window-width="2560"
     inkscape:window-height="979"
     inkscape:window-x="0"
     inkscape:window-y="0"
     inkscape:window-maximized="1"
     inkscape:current-layer="svg4" />
  <path
     id="path2"
     style="fill:#000000"
     d="M 8.0058594 0 C 7.3832254 -0.002624674 6.8213074 0.3852133 6.5996094 0.9609375 A 1.0001 1.0001 0 0 0 6.5996094 0.96289062 L 5.0332031 5.0332031 L 0.9609375 6.5996094 C 0.3646435 6.8294264 1.4062811e-15 7.437436 0 8 C 0 8.562554 0.3646435 9.1705936 0.9609375 9.4003906 L 5.0332031 10.966797 L 6.5996094 15.039062 C 6.8294364 15.635382 7.437446 16 8 16 C 8.563014 16 9.1709936 15.634319 9.4003906 15.037109 L 10.966797 10.966797 L 15.037109 9.4003906 C 15.634289 9.1710136 16 8.563034 16 8 C 16 7.437436 15.635362 6.8294064 15.039062 6.5996094 L 15.037109 6.5996094 L 10.966797 5.0332031 L 9.4003906 0.96289062 A 1.0001 1.0001 0 0 0 9.4003906 0.9609375 C 9.1796126 0.3878732 8.6243434 0.002209978 8.0058594 0 z M 12.648438 1.90625 C 12.424668 1.89797 12.197798 1.9393491 11.986328 2.0332031 L 11.044922 2.4511719 L 11.404297 3.3867188 L 11.806641 4.3457031 L 12.613281 4.5957031 L 13.548828 4.9550781 L 13.966797 4.0136719 C 14.215887 3.4523369 14.095956 2.7865522 13.660156 2.3476562 C 13.622235 2.3094137 13.582196 2.2736537 13.541016 2.2402344 C 13.284644 2.0321774 12.969738 1.9181401 12.648438 1.90625 z M 3.3320312 1.9121094 C 3.0082224 1.9309972 2.6975503 2.0506284 2.4589844 2.2402344 C 2.4182737 2.2725898 2.3799915 2.3075085 2.34375 2.34375 C 1.945964 2.741536 1.7740661 3.4295779 2.0332031 4.0136719 L 2.4511719 4.9550781 L 3.3867188 4.5957031 L 4.1933594 4.3457031 L 4.5957031 3.3867188 L 4.9550781 2.4511719 L 4.0136719 2.0332031 C 3.7946139 1.9360251 3.5594692 1.8988394 3.3320312 1.9121094 z M 8 6 A 2 2 0 0 1 10 8 A 2 2 0 0 1 8 10 A 2 2 0 0 1 6 8 A 2 2 0 0 1 8 6 z M 2.4511719 11.044922 L 2.0332031 11.986328 C 1.7740561 12.570508 1.945967 13.25845 2.34375 13.65625 C 2.3789849 13.691486 2.4194904 13.722348 2.4589844 13.753906 L 2.4589844 13.759766 L 2.4628906 13.759766 C 2.8696819 14.081589 3.4832299 14.202825 4.0136719 13.966797 L 4.9550781 13.548828 L 4.5957031 12.613281 L 4.1933594 11.654297 L 3.3867188 11.404297 L 2.4511719 11.044922 z M 13.548828 11.044922 L 12.613281 11.404297 L 11.806641 11.654297 L 11.404297 12.613281 L 11.044922 13.548828 L 11.986328 13.966797 C 12.516748 14.202825 13.130318 14.081598 13.537109 13.759766 L 13.541016 13.759766 L 13.541016 13.753906 C 13.580509 13.722348 13.621016 13.691487 13.65625 13.65625 C 14.05404 13.25846 14.225937 12.570428 13.966797 11.986328 L 13.548828 11.044922 z " />
</svg>
