<?xml version="1.0" encoding="UTF-8" standalone="no"?>
<svg
   height="16"
   width="16"
   version="1.1"
   id="svg4"
   sodipodi:docname="face-sad-symbolic.svg"
   inkscape:version="1.1.2 (0a00cf5339, 2022-02-04)"
   xmlns:inkscape="http://www.inkscape.org/namespaces/inkscape"
   xmlns:sodipodi="http://sodipodi.sourceforge.net/DTD/sodipodi-0.dtd"
   xmlns="http://www.w3.org/2000/svg"
   xmlns:svg="http://www.w3.org/2000/svg">
  <defs
     id="defs8" />
  <sodipodi:namedview
     id="namedview6"
     pagecolor="#ffffff"
     bordercolor="#666666"
     borderopacity="1.0"
     inkscape:pageshadow="2"
     inkscape:pageopacity="0.0"
     inkscape:pagecheckerboard="0"
     showgrid="true"
     inkscape:zoom="41"
     inkscape:cx="8.0121951"
     inkscape:cy="8"
     inkscape:current-layer="svg4">
    <inkscape:grid
       type="xygrid"
       id="grid948" />
  </sodipodi:namedview>
  <path
     id="path2"
     style="marker:none;fill:#241f31"
     d="M 8 0 C 3.588 0 0 3.588 0 8 C 0 12.412 3.588 16 8 16 C 12.412 16 16 12.412 16 8 C 16 3.588 12.412 0 8 0 z M 8 1 C 11.872 1 15 4.128 15 8 C 15 11.872 11.872 15 8 15 C 4.128 15 1 11.872 1 8 C 1 4.128 4.128 1 8 1 z M 7.9511719 12 A 4.999 4.999 0 0 0 8 12.003906 A 4.999 4.999 0 0 0 8.0488281 12 L 7.9511719 12 z " />
  <path
     id="rect1061"
     style="fill:#241f31;stroke-linecap:round;stroke-linejoin:round;stop-color:#000000"
     d="M 6.5,4 C 6.777,4 7,4.223 7,4.5 v 2 C 7,6.777 6.777,7 6.5,7 6.223,7 6,6.777 6,6.5 v -2 C 6,4.223 6.223,4 6.5,4 Z" />
  <path
     id="rect1064"
     style="fill:#241f31;stroke-linecap:round;stroke-linejoin:round;stop-color:#000000"
     d="M 9.5,4 C 9.777,4 10,4.223 10,4.5 v 2 C 10,6.777 9.777,7 9.5,7 9.223,7 9,6.777 9,6.5 v -2 C 9,4.223 9.223,4 9.5,4 Z" />
  <path
     style="color:#000000;fill:#000000;stroke-width:1;-inkscape-stroke:none"
     d="M 7.9999996,9 C 6.550921,9 5.5388755,9.6042956 4.9082124,10.222382 4.2775494,10.840467 4,11.509326 4,11.509326 L 4.8045673,12 c 0,0 0.1721663,-0.433008 0.6657883,-0.916786 0.493622,-0.483778 1.2804382,-0.981349 2.529644,-0.981349 1.2492056,0 2.0360224,0.497571 2.5296444,0.981349 C 11.023266,11.566992 11.195432,12 11.195432,12 L 12,11.509326 c 0,0 -0.277549,-0.668859 -0.908213,-1.286944 C 10.461124,9.6042956 9.4490785,9 7.9999996,9 Z"
     id="path995" />
</svg>
