<?xml version="1.0" encoding="UTF-8" standalone="no"?>
<svg
   id="svg4"
   width="16"
   height="16"
   version="1.1"
   viewBox="0 0 16 16"
   sodipodi:docname="folder-download-filled-symbolic.svg"
   inkscape:version="1.2.2 (b0a8486541, 2022-12-01)"
   xmlns:inkscape="http://www.inkscape.org/namespaces/inkscape"
   xmlns:sodipodi="http://sodipodi.sourceforge.net/DTD/sodipodi-0.dtd"
   xmlns="http://www.w3.org/2000/svg"
   xmlns:svg="http://www.w3.org/2000/svg">
  <defs
     id="defs9" />
  <sodipodi:namedview
     id="namedview7"
     pagecolor="#ffffff"
     bordercolor="#000000"
     borderopacity="0.25"
     inkscape:showpageshadow="2"
     inkscape:pageopacity="0.0"
     inkscape:pagecheckerboard="0"
     inkscape:deskcolor="#d1d1d1"
     showgrid="false"
     inkscape:zoom="48.875"
     inkscape:cx="8"
     inkscape:cy="8"
     inkscape:window-width="2560"
     inkscape:window-height="979"
     inkscape:window-x="0"
     inkscape:window-y="0"
     inkscape:window-maximized="1"
     inkscape:current-layer="svg4" />
  <path
     id="path848"
     style="color:#000000;fill:#241f31;stroke-width:2;stroke-linecap:round;stroke-linejoin:round;-inkscape-stroke:none"
     d="M 8 0.0546875 C 6.9072785 0.0546875 6.0000001 0.96196598 6 2.0546875 C 6 3.0387746 6.7352322 3.8713068 7.6796875 4.0273438 C 6.7354802 4.183599 6 5.0160921 6 6 C 6 7.0143884 6.7813153 7.8690181 7.7675781 7.9863281 C 6.7813153 8.1036381 6 8.9582679 6 9.9726562 C 5.9999999 11.065378 6.9072784 11.972656 8 11.972656 C 9.0927216 11.972656 10 11.065378 10 9.9726562 C 10 8.9582679 9.2186847 8.1036382 8.2324219 7.9863281 C 9.2186847 7.8690181 10 7.0143884 10 6 C 10 5.0160921 9.2645198 4.183599 8.3203125 4.0273438 C 9.2647678 3.8713068 10 3.0387746 10 2.0546875 C 9.9999999 0.96196598 9.0927215 0.0546875 8 0.0546875 z M 13.333984 9.4824219 C 13.065289 9.4824219 12.796423 9.5706911 12.5625 9.7460938 A 0.50004851 0.50004851 0 0 0 12.550781 9.7539062 L 8 13.361328 L 3.4492188 9.7539062 A 0.50004851 0.50004851 0 0 0 3.4375 9.7460938 C 3.2108062 9.5760396 2.9421219 9.5000312 2.6660156 9.5 C 2.3899112 9.5000312 2.121227 9.5760362 1.8945312 9.7460938 C 1.6606407 9.9215463 1.5 10.202525 1.5 10.5 C 1.5 10.797475 1.6606407 11.078453 1.8945312 11.253906 L 7.2285156 15.253906 C 7.6963514 15.604632 8.3036486 15.604632 8.7714844 15.253906 L 14.105469 11.253906 C 14.33936 11.078453 14.5 10.797476 14.5 10.5 C 14.5 10.202524 14.33936 9.9215461 14.105469 9.7460938 C 13.871546 9.5706922 13.602682 9.4824219 13.333984 9.4824219 z " />
</svg>
