<?xml version="1.0" encoding="UTF-8" standalone="no"?>
<svg
   height="16px"
   viewBox="0 0 16 16"
   width="16px"
   version="1.1"
   id="svg4"
   sodipodi:docname="view-refresh-filled-symbolic.svg"
   inkscape:version="1.2.2 (b0a8486541, 2022-12-01)"
   xmlns:inkscape="http://www.inkscape.org/namespaces/inkscape"
   xmlns:sodipodi="http://sodipodi.sourceforge.net/DTD/sodipodi-0.dtd"
   xmlns="http://www.w3.org/2000/svg"
   xmlns:svg="http://www.w3.org/2000/svg">
  <sodipodi:namedview
     id="namedview5"
     pagecolor="#ffffff"
     bordercolor="#000000"
     borderopacity="0.25"
     inkscape:showpageshadow="2"
     inkscape:pageopacity="0.0"
     inkscape:pagecheckerboard="0"
     inkscape:deskcolor="#d1d1d1"
     showgrid="false"
     inkscape:zoom="48.875"
     inkscape:cx="8"
     inkscape:cy="9.0639386"
     inkscape:window-width="2560"
     inkscape:window-height="979"
     inkscape:window-x="0"
     inkscape:window-y="0"
     inkscape:window-maximized="1"
     inkscape:current-layer="svg4" />
  <defs
     id="defs8" />
  <path
     id="path844"
     style="color:#000000;fill:#1a1a1a;stroke-linecap:round;stroke-linejoin:round;-inkscape-stroke:none"
     d="M 14.5 0.3671875 C 13.953638 0.36718588 13.499998 0.82082473 13.5 1.3671875 L 13.5 2.4414062 C 12.332187 1.417999 10.598607 0.5 7.8808594 0.5 C 5.4960709 0.5 3.5885649 1.4464142 2.3417969 2.875 C 1.0979038 4.3002914 0.5 6.1573821 0.5 8 C 0.5 9.8426179 1.0979038 11.699708 2.3417969 13.125 C 3.5885649 14.553586 5.4960709 15.5 7.8808594 15.5 C 8.8206499 15.5 10.633877 15.530919 12.316406 14.759766 C 14.017992 13.979872 15.5 12.214678 15.5 9.3007812 C 15.500002 8.7544184 15.046362 8.3007797 14.5 8.3007812 C 13.953638 8.3007797 13.499998 8.7544184 13.5 9.3007812 C 13.5 10.455293 13.26316 11.224917 12.908203 11.773438 C 12.553246 12.321957 12.067314 12.671378 11.482422 12.939453 C 10.336138 13.464833 8.8203728 13.5 7.8808594 13.5 C 6.0049606 13.5 4.7351129 12.827138 3.8496094 11.8125 C 2.9677318 10.802017 2.5 9.4060652 2.5 8 C 2.5 6.5939348 2.9677318 5.1979829 3.8496094 4.1875 C 4.7351128 3.1728625 6.0049606 2.5 7.8808594 2.5 C 10.485131 2.5 11.813495 3.3642951 12.591797 4.1875 C 12.701334 4.3033567 12.726545 4.3889806 12.8125 4.5 L 10.449219 4.5 C 9.9028572 4.5 9.4492187 4.9536382 9.4492188 5.5 C 9.4492188 6.0463618 9.9028572 6.5 10.449219 6.5 L 14.5 6.5 A 0.50005 0.50005 0 0 0 14.546875 6.4980469 C 14.559685 6.4968669 14.571284 6.4938575 14.583984 6.4921875 L 14.611328 6.4882812 C 14.617928 6.4872313 14.624319 6.4875068 14.630859 6.4863281 C 14.637259 6.4854973 14.644011 6.4853328 14.650391 6.484375 C 14.790944 6.463492 14.925457 6.4128839 15.044922 6.3359375 A 0.50005 0.50005 0 0 0 15.080078 6.3105469 C 15.082778 6.3084369 15.085191 6.3049144 15.087891 6.3027344 C 15.203097 6.2190555 15.296838 6.1100008 15.367188 5.9863281 A 0.50005 0.50005 0 0 0 15.386719 5.9609375 A 0.50005 0.50005 0 0 0 15.386719 5.9589844 C 15.460053 5.8180422 15.499156 5.6611292 15.5 5.5019531 A 0.50005 0.50005 0 0 0 15.5 5.5 L 15.5 1.3671875 C 15.500002 0.82082473 15.046362 0.36718588 14.5 0.3671875 z " />
</svg>
