<?xml version="1.0" encoding="UTF-8" standalone="no"?>
<svg
   width="16"
   height="16"
   viewBox="0 0 16 16"
   version="1.1"
   id="svg12"
   sodipodi:docname="co.tauos.Catalogue-symbolic.svg"
   inkscape:version="1.2.1 (9c6d41e410, 2022-07-14)"
   xmlns:inkscape="http://www.inkscape.org/namespaces/inkscape"
   xmlns:sodipodi="http://sodipodi.sourceforge.net/DTD/sodipodi-0.dtd"
   xmlns="http://www.w3.org/2000/svg"
   xmlns:svg="http://www.w3.org/2000/svg">
  <defs
     id="defs16" />
  <sodipodi:namedview
     id="namedview14"
     pagecolor="#ffffff"
     bordercolor="#000000"
     borderopacity="0.25"
     inkscape:showpageshadow="2"
     inkscape:pageopacity="0.0"
     inkscape:pagecheckerboard="0"
     inkscape:deskcolor="#d1d1d1"
     showgrid="true"
     inkscape:zoom="24.4375"
     inkscape:cx="8.0613811"
     inkscape:cy="8.0204604"
     inkscape:window-width="2560"
     inkscape:window-height="927"
     inkscape:window-x="0"
     inkscape:window-y="0"
     inkscape:window-maximized="1"
     inkscape:current-layer="svg12">
    <inkscape:grid
       type="xygrid"
       id="grid274" />
  </sodipodi:namedview>
  <path
     style="color:#000000;fill:#000000;-inkscape-stroke:none"
     d="M 3,5 C 1.9007718,5 0.82169323,5.9153299 1,7 l 0.9863281,6 c 0.1783067,1.08467 0.9007718,2 2,2 H 12 c 1.099228,0 1.819288,-0.915728 2,-2 L 15,7 C 15.180712,5.915728 14.099228,5 13,5 Z m 0,1.0136719 h 10 c 0.554937,0 1.077559,0.4389416 0.986328,0.9863281 l -1,6 C 12.895097,13.547386 12.554937,13.986328 12,13.986328 H 3.9863281 C 3.4313911,13.986328 3.0900168,13.547587 3,13 L 2.0136719,7 C 1.9236551,6.4524125 2.445063,6.0136719 3,6.0136719 Z"
     id="rect328"
     sodipodi:nodetypes="ssssssssssssssssss" />
  <path
     style="color:#000000;fill:#000000"
     d="M 6,2 C 6,2 5,2 5,3 v 3 h 6 V 3 C 11,2 10,2 10,2 Z m 0,1 c 2,0 2,0 4.035156,-0.035156 -0.03516,2.0351562 0,2.0703124 0,2.0703124 H 5.9648437 C 5.9648437,5.0351562 6,5 6,3 Z"
     id="rect990"
     sodipodi:nodetypes="cccccccccccc" />
  <path
     id="rect1162"
     d="m 5,6 h 1 v 8 H 5 Z"
     style="stroke-width:2" />
  <path
     id="rect1162-3"
     d="m 10,6 h 1 v 8 h -1 z"
     style="stroke-width:2" />
</svg>
