<?xml version="1.0" encoding="UTF-8"?>
<svg height="128px" viewBox="0 0 128 128" width="128px" xmlns="http://www.w3.org/2000/svg" xmlns:xlink="http://www.w3.org/1999/xlink">
    <linearGradient id="a" gradientUnits="userSpaceOnUse">
        <stop offset="0" stop-color="#8c56bf" />
        <stop offset="0.0500001" stop-color="#af89d2" />
        <stop offset="0.099807" stop-color="#8c56bf" />
        <stop offset="0.900001" stop-color="#8c56bf" />
        <stop offset="0.950001" stop-color="#af89d2" />
        <stop offset="1" stop-color="#8c56bf" />
    </linearGradient>
    <linearGradient id="b" gradientTransform="matrix(1 0 0 0.533333 -8 46.53334)" x1="72" x2="128" xlink:href="#a" y1="89" y2="89" />
    <linearGradient id="c" gradientTransform="matrix(1 0 0 0.533333 -8 46.53334)" x1="16" x2="72" xlink:href="#a" y1="89" y2="89" />
    <linearGradient id="d" gradientTransform="matrix(1.594533 0 0 1.001651 -37.634174 -168.370388)" gradientUnits="userSpaceOnUse" x1="62.484871" x2="65.620583" y1="241.950775" y2="241.950775">
        <stop offset="0" stop-color="#f9f6fc" />
        <stop offset="0.517068" stop-color="#ddceeb" stop-opacity="0.941176" />
        <stop offset="1" stop-color="#f9f6fc" />
    </linearGradient>
    <path d="m 64 70 v 48 h 48.777344 c 4 0 7.222656 -2.257812 7.222656 -5.058594 v -37.882812 c 0 -2.800782 -3.222656 -5.058594 -7.222656 -5.058594 z m 0 0" fill="url(#b)" />
    <path d="m 15.222656 70 c -4 0 -7.222656 2.257812 -7.222656 5.058594 v 37.882812 c 0 2.800782 3.222656 5.058594 7.222656 5.058594 h 48.777344 v -48 z m 0 0" fill="url(#c)" />
    <path d="m 68.5 28 c -1.871094 -0.015625 -3.957031 3.957031 -3.957031 3.957031 l -0.042969 0.042969 v -0.082031 l -0.5 -0.488281 v 80.472656 h 3 v 4 s 1.976562 -3.984375 4 -4 c 4.277344 -0.007813 41.777344 0 41.777344 0 c 4 0 7.222656 -3.945313 7.222656 -8.84375 v -66.214844 c 0 -4.898438 -3.222656 -8.84375 -7.222656 -8.84375 c 0 0 -33.191406 0 -44.277344 0 z m 0 0" fill="#f9f6fc" />
    <path d="m 15.222656 28 c -4 0 -7.222656 3.945312 -7.222656 8.84375 v 66.214844 c 0 4.898437 3.222656 8.84375 7.222656 8.84375 c 0 0 31.125 -0.003906 42.777344 0 c 2.667969 0.09375 4 4 4 4 v -4 h 2 v -80.402344 s -2.171875 -3.4375 -3.5 -3.5 c -12.992188 0 -45.277344 0 -45.277344 0 z m 0 0" fill="#f9f6fc" />
    <g fill="#8c56bf" fill-opacity="0.4">
        <path d="m 70.175781 31.960938 h 20 v 20 h -20 z m 0 0" />
        <path d="m 93.320312 58.585938 h 20 v 20 h -20 z m 0 0" />
        <path d="m 70.109375 85.378906 h 20 v 20 h -20 z m 0 0" />
        <path d="m 93.320312 34.679688 h 19.191407 v 2.992187 h -19.191407 z m 0 0" />
        <path d="m 93.320312 39.132812 h 16.632813 v 1.597657 h -16.632813 z m 0 0" />
        <path d="m 69.414062 58.585938 h 19.191407 v 2.992187 h -19.191407 z m 0 0" />
        <path d="m 69.414062 63.039062 h 16.632813 v 1.59375 h -16.632813 z m 0 0" />
        <path d="m 93.320312 85.378906 h 19.191407 v 2.992188 h -19.191407 z m 0 0" />
        <path d="m 93.320312 89.832031 h 16.632813 v 1.59375 h -16.632813 z m 0 0" />
        <path d="m 15.324219 31.960938 h 42.984375 v 46.457031 h -42.984375 z m 0 0" />
        <path d="m 15.101562 85.378906 h 42.398438 v 2.992188 h -42.398438 z m 0 0" />
        <path d="m 15.101562 89.832031 h 39.839844 v 1.59375 h -39.839844 z m 0 0" />
        <path d="m 15.101562 102.402344 h 39.839844 v 1.597656 h -39.839844 z m 0 0" />
        <path d="m 15.101562 93 h 35 v 1.597656 h -35 z m 0 0" />
        <path d="m 15.101562 96 h 25 v 1.597656 h -25 z m 0 0" />
    </g>
    <path d="m 62 31.960938 h 5 v 84.039062 h -5 z m 0 0" fill="url(#d)" />
</svg>
