<?xml version="1.0" encoding="UTF-8"?>
<svg height="16px" viewBox="0 0 16 16" width="16px" xmlns="http://www.w3.org/2000/svg">
    <path d="m 2 0.0078125 c -0.859375 0 -1.429688 0.3203125 -1.710938 0.6992185 c -0.28515575 0.378907 -0.289062 0.800781 -0.289062 0.800781 v 13 s 0.00390625 0.421876 0.289062 0.800782 c 0.28125 0.378906 0.851563 0.699218 1.710938 0.699218 c 0.109375 0 0.21875 -0.035156 0.304688 -0.105468 l 5.5 -4.25 c 0.125 -0.09375 0.195312 -0.238282 0.195312 -0.394532 v -6.75 c 0 -0.160156 -0.074219 -0.308593 -0.207031 -0.40625 l -5.5 -4 c -0.082031 -0.0585932 -0.1875 -0.0937495 -0.292969 -0.0937495 z m 0 1.1171875 l 5 3.640625 v 6.246094 l -5 3.863281 z m 0 0"/>
    <path d="m 14 0.0078125 c -0.105469 0 -0.210938 0.0351563 -0.296875 0.0937495 l -5.5 4 c -0.128906 0.097657 -0.203125 0.246094 -0.203125 0.40625 v 6.75 c 0 0.15625 0.070312 0.300782 0.191406 0.394532 l 5.5 4.25 c 0.089844 0.070312 0.199219 0.105468 0.308594 0.105468 c 0.859375 0 1.429688 -0.320312 1.714844 -0.699218 c 0.28125 -0.378906 0.285156 -0.800782 0.285156 -0.800782 v -13 s -0.003906 -0.421874 -0.285156 -0.800781 c -0.285156 -0.378906 -0.855469 -0.6992185 -1.714844 -0.6992185 z m 0 1.1171875 v 13.75 l -5 -3.863281 v -6.246094 z m 0 0"/>
    <path d="m 10 5 l 2 -1.234375 v 1.917969 l -2 0.933594 z m 0 0"/>
    <path d="m 11.359375 11.152344 l 2 1.234375 v -1.921875 l -2 -0.929688 z m 0 0"/>
    <path d="m 3 3 l 3 2 v 4 l -3 1 z m 0 0"/>
</svg>
