<?xml version="1.0" encoding="UTF-8"?>
<svg height="128px" viewBox="0 0 128 128" width="128px" xmlns="http://www.w3.org/2000/svg" xmlns:xlink="http://www.w3.org/1999/xlink">
    <linearGradient id="a" gradientUnits="userSpaceOnUse" x1="13" x2="68.160698" y1="63" y2="63">
        <stop offset="0" stop-color="#d7c5e9"/>
        <stop offset="1" stop-color="#bea0db"/>
    </linearGradient>
    <linearGradient id="b" gradientTransform="matrix(0.481814 0 0 0.966935 33.164421 0.14921)" gradientUnits="userSpaceOnUse" x1="50" x2="70" y1="65" y2="65">
        <stop offset="0" stop-color="#d7c5e9"/>
        <stop offset="1" stop-color="#f1eaf7"/>
    </linearGradient>
    <clipPath id="c">
        <rect height="128" width="128"/>
    </clipPath>
    <clipPath id="d">
        <rect height="128" width="128"/>
    </clipPath>
    <filter id="e" height="100%" width="100%" x="0%" y="0%">
        <feColorMatrix in="SourceGraphic" type="matrix" values="0 0 0 0 1 0 0 0 0 1 0 0 0 0 1 0 0 0 1 0"/>
    </filter>
    <mask id="f">
        <g clip-path="url(#d)" filter="url(#e)">
            <g clip-path="url(#c)">
                <path d="m 17 13 h 96 c 2.210938 0 4 1.789062 4 4 v 96 c 0 2.210938 -1.789062 4 -4 4 h -96 c -2.210938 0 -4 -1.789062 -4 -4 v -96 c 0 -2.210938 1.789062 -4 4 -4 z m 0 0" fill="#a57bcd"/>
                <path d="m 17 13 h 47.160156 c 2.210938 0 4 1.789062 4 4 v 92 c 0 2.210938 -1.789062 4 -4 4 h -47.160156 c -2.210938 0 -4 -1.789062 -4 -4 v -92 c 0 -2.210938 1.789062 -4 4 -4 z m 0 0" fill="url(#a)"/>
                <path d="m 64 13 h 49 c 2.210938 0 4 1.789062 4 4 v 92 c 0 2.210938 -1.789062 4 -4 4 h -49 c -2.210938 0 -4 -1.789062 -4 -4 v -92 c 0 -2.210938 1.789062 -4 4 -4 z m 0 0" fill="#f1eaf7"/>
                <path d="m 60 13 h 10 v 100 h -10 z m 0 0" fill="url(#b)"/>
                <path d="m 74 20 h 32 c 2.210938 0 4 1.789062 4 4 v 27 c 0 2.210938 -1.789062 4 -4 4 h -32 c -2.210938 0 -4 -1.789062 -4 -4 v -27 c 0 -2.210938 1.789062 -4 4 -4 z m 0 0" fill="#d7c5e9"/>
                <path d="m 74 60 h 12 c 2.210938 0 4 1.789062 4 4 v 12 c 0 2.210938 -1.789062 4 -4 4 h -12 c -2.210938 0 -4 -1.789062 -4 -4 v -12 c 0 -2.210938 1.789062 -4 4 -4 z m 0 0" fill="#d7c5e9"/>
                <path d="m 99 60 h 7 c 2.210938 0 4 1.789062 4 4 v 12 c 0 2.210938 -1.789062 4 -4 4 h -7 c -2.210938 0 -4 -1.789062 -4 -4 v -12 c 0 -2.210938 1.789062 -4 4 -4 z m 0 0" fill="#d7c5e9"/>
                <path d="m 72 100 h 36 c 1.105469 0 2 0.894531 2 2 v 1 c 0 1.105469 -0.894531 2 -2 2 h -36 c -1.105469 0 -2 -0.894531 -2 -2 v -1 c 0 -1.105469 0.894531 -2 2 -2 z m 0 0" fill="#d7c5e9"/>
                <path d="m 72 90 h 36 c 1.105469 0 2 0.894531 2 2 v 1 c 0 1.105469 -0.894531 2 -2 2 h -36 c -1.105469 0 -2 -0.894531 -2 -2 v -1 c 0 -1.105469 0.894531 -2 2 -2 z m 0 0" fill="#d7c5e9"/>
                <path d="m 30 45 v 25 h -10 l 17.5 20 l 17.5 -20 h -10 v -25 z m 0 0" fill="#8c56bf"/>
            </g>
        </g>
    </mask>
    <mask id="g">
        <g filter="url(#e)">
            <rect fill-opacity="0.8" height="128" width="128"/>
        </g>
    </mask>
    <linearGradient id="h" gradientTransform="matrix(0 0.37 -0.98462 0 295.38501 -30.360001)" gradientUnits="userSpaceOnUse" x1="300" x2="428" y1="235" y2="235">
        <stop offset="0" stop-color="#f9f06b"/>
        <stop offset="1" stop-color="#f5c211"/>
    </linearGradient>
    <clipPath id="i">
        <rect height="128" width="128"/>
    </clipPath>
    <clipPath id="j">
        <rect height="128" width="128"/>
    </clipPath>
    <path d="m 17 13 h 96 c 2.210938 0 4 1.789062 4 4 v 96 c 0 2.210938 -1.789062 4 -4 4 h -96 c -2.210938 0 -4 -1.789062 -4 -4 v -96 c 0 -2.210938 1.789062 -4 4 -4 z m 0 0" fill="#a57bcd"/>
    <path d="m 17 13 h 47.160156 c 2.210938 0 4 1.789062 4 4 v 92 c 0 2.210938 -1.789062 4 -4 4 h -47.160156 c -2.210938 0 -4 -1.789062 -4 -4 v -92 c 0 -2.210938 1.789062 -4 4 -4 z m 0 0" fill="url(#a)"/>
    <path d="m 64 13 h 49 c 2.210938 0 4 1.789062 4 4 v 92 c 0 2.210938 -1.789062 4 -4 4 h -49 c -2.210938 0 -4 -1.789062 -4 -4 v -92 c 0 -2.210938 1.789062 -4 4 -4 z m 0 0" fill="#f1eaf7"/>
    <path d="m 60 13 h 10 v 100 h -10 z m 0 0" fill="url(#b)"/>
    <g fill="#d7c5e9">
        <path d="m 74 20 h 32 c 2.210938 0 4 1.789062 4 4 v 27 c 0 2.210938 -1.789062 4 -4 4 h -32 c -2.210938 0 -4 -1.789062 -4 -4 v -27 c 0 -2.210938 1.789062 -4 4 -4 z m 0 0"/>
        <path d="m 74 60 h 12 c 2.210938 0 4 1.789062 4 4 v 12 c 0 2.210938 -1.789062 4 -4 4 h -12 c -2.210938 0 -4 -1.789062 -4 -4 v -12 c 0 -2.210938 1.789062 -4 4 -4 z m 0 0"/>
        <path d="m 99 60 h 7 c 2.210938 0 4 1.789062 4 4 v 12 c 0 2.210938 -1.789062 4 -4 4 h -7 c -2.210938 0 -4 -1.789062 -4 -4 v -12 c 0 -2.210938 1.789062 -4 4 -4 z m 0 0"/>
        <path d="m 72 100 h 36 c 1.105469 0 2 0.894531 2 2 v 1 c 0 1.105469 -0.894531 2 -2 2 h -36 c -1.105469 0 -2 -0.894531 -2 -2 v -1 c 0 -1.105469 0.894531 -2 2 -2 z m 0 0"/>
        <path d="m 72 90 h 36 c 1.105469 0 2 0.894531 2 2 v 1 c 0 1.105469 -0.894531 2 -2 2 h -36 c -1.105469 0 -2 -0.894531 -2 -2 v -1 c 0 -1.105469 0.894531 -2 2 -2 z m 0 0"/>
    </g>
    <path d="m 30 45 v 25 h -10 l 17.5 20 l 17.5 -20 h -10 v -25 z m 0 0" fill="#8c56bf"/>
    <g clip-path="url(#j)" mask="url(#f)">
        <g clip-path="url(#i)" mask="url(#g)">
            <path d="m 128 80.640625 v 47.359375 h -128 v -47.359375 z m 0 0" fill="url(#h)"/>
            <path d="m 13.308594 80.640625 l 47.355468 47.359375 h 21.214844 l -47.359375 -47.359375 z m 42.421875 0 l 47.363281 47.359375 h 21.214844 l -47.363282 -47.359375 z m 42.429687 0 l 29.839844 29.839844 v -21.210938 l -8.628906 -8.628906 z m -98.160156 7.90625 v 21.214844 l 18.238281 18.238281 h 21.214844 z m 0 0"/>
        </g>
    </g>
</svg>
