<svg width="128" height="128" viewBox="0 0 128 128" fill="none" xmlns="http://www.w3.org/2000/svg">
<g filter="url(#filter0_ii_1013_2)">
<rect x="12" y="12" width="104" height="104" rx="24" fill="url(#paint0_linear_1013_2)"/>
</g>
<g filter="url(#filter1_d_1013_2)">
<path d="M94.8377 40.4639L79.3255 33.3089C78.0003 32.6976 76.4878 33.6656 76.4878 35.125V84.7776C76.4878 85.528 76.9078 86.2153 77.5756 86.5575L93.0878 94.5075C94.4187 95.1896 96 94.2231 96 92.7276V42.28C96 41.4997 95.5462 40.7907 94.8377 40.4639Z" fill="#FAFAFA"/>
</g>
<g filter="url(#filter2_d_1013_2)">
<path d="M51.1035 40.4726L34.8108 33.2466C33.4884 32.6601 32 33.6283 32 35.0749V84.7559C32 85.5176 32.4327 86.2132 33.1159 86.5499L49.4086 94.5788C50.7377 95.2337 52.2927 94.2665 52.2927 92.7848V42.3009C52.2927 41.5099 51.8266 40.7933 51.1035 40.4726Z" fill="#FAFAFA"/>
</g>
<g style="mix-blend-mode:overlay" filter="url(#filter3_d_1013_2)">
<path d="M73.0304 86.5499L56.7377 94.5788C55.4086 95.2337 53.8536 94.2665 53.8536 92.7848V42.3009C53.8536 41.5099 54.3198 40.7933 55.0428 40.4726L71.3355 33.2466C72.6579 32.6601 74.1463 33.6283 74.1463 35.0749V84.7559C74.1463 85.5176 73.7136 86.2132 73.0304 86.5499Z" fill="#FAFAFA"/>
</g>
<path d="M35.9025 42.9268L47.6098 47.6097" stroke="#9289D3" stroke-width="2" stroke-linecap="round"/>
<path d="M35.9025 49.1707L44.4878 53.0732" stroke="#9289D3" stroke-width="2" stroke-linecap="round"/>
<path d="M35.9025 55.4146L47.6098 60.878" stroke="#9289D3" stroke-width="2" stroke-linecap="round"/>
<path d="M69.4634 75.7073L58.5366 81.1708" stroke="#4D409F" stroke-width="2" stroke-linecap="round"/>
<path d="M69.4634 81.1707L58.5366 86.6341" stroke="#4D409F" stroke-width="2" stroke-linecap="round"/>
<path d="M80.3903 75.1339L88.5854 79.2753" stroke="#9289D3" stroke-width="2" stroke-linecap="round"/>
<path d="M80.3903 69.4315L91.3171 74.4012" stroke="#9289D3" stroke-width="2" stroke-linecap="round"/>
<path d="M80.3903 81.6167L91.3171 87.4146" stroke="#9289D3" stroke-width="2" stroke-linecap="round"/>
<path d="M88.4891 56.5495L81.5623 53.3991C80.8485 53.0745 80.3903 52.3627 80.3903 51.5786V46.0336C80.3903 44.5788 81.894 43.6107 83.2183 44.213L90.1451 47.3634C90.8589 47.6881 91.3171 48.3998 91.3171 49.184V54.729C91.3171 56.1837 89.8133 57.1518 88.4891 56.5495Z" fill="#9289D3"/>
<path d="M88.4891 68.9737L81.5623 65.8233C80.8485 65.4986 80.3903 64.7868 80.3903 64.0027V58.4577C80.3903 57.0029 81.894 56.0349 83.2183 56.6372L90.1451 59.7876C90.8589 60.1122 91.3171 60.824 91.3171 61.6081V67.1531C91.3171 68.6079 89.8133 69.5759 88.4891 68.9737Z" fill="#9289D3"/>
<path d="M67.0708 39.7194L60.3855 42.4543C57.3789 43.6842 55.4146 46.6102 55.4146 49.8586V68.1165C55.4146 70.9787 58.333 72.9147 60.97 71.8018L67.696 68.963C70.6592 67.7124 72.5853 64.8089 72.5853 61.5926V43.4216C72.5853 40.5783 69.7023 38.6428 67.0708 39.7194Z" fill="#4D409F"/>
<path d="M45.8261 86.9162L37.5508 83.2764C37.2162 83.1293 36.9886 82.8113 36.9571 82.4472L36.0537 71.9934C35.9869 71.2212 36.7861 70.6699 37.4842 71.0065L48.4688 76.3024C48.8815 76.5014 49.1062 76.9554 49.0141 77.4042L47.2083 86.2019C47.0802 86.8259 46.4092 87.1726 45.8261 86.9162Z" fill="#9289D3"/>
<path d="M39.0244 75.4472V70.2743C39.0244 69.5374 39.7943 69.0536 40.4582 69.3733L45.4826 71.7924C45.8287 71.9591 46.0488 72.3093 46.0488 72.6934V78.8293" stroke="#9288D3" stroke-width="2"/>
<path fill-rule="evenodd" clip-rule="evenodd" d="M65.1913 47.8699C65.1913 47.3176 64.7436 46.8699 64.1913 46.8699C63.6391 46.8699 63.1913 47.3176 63.1913 47.8699V49.6061C62.9878 49.685 62.7839 49.7848 62.5797 49.9053C61.8521 50.3347 61.2802 50.8491 60.9791 51.49C60.6571 52.1755 60.7094 52.8659 60.9687 53.4696C61.2127 54.0374 61.6368 54.5303 62.0853 54.946C62.5424 55.3695 63.0835 55.7661 63.6326 56.1291C64.5295 56.7219 65.1492 57.2485 65.4599 57.7183C65.6053 57.938 65.6546 58.104 65.6625 58.2281C65.6697 58.3419 65.6474 58.4923 65.5206 58.7018C65.272 59.1127 65.0356 59.3429 64.8403 59.489C64.6517 59.63 64.4822 59.7103 64.2613 59.8149L64.1961 59.8459C64.0764 59.9028 63.9919 59.9335 63.932 59.9471C63.9165 59.9507 63.9056 59.9524 63.8987 59.9532C63.0998 59.7405 62.3812 59.3044 62.2539 58.5677C62.1598 58.0235 61.6423 57.6586 61.0981 57.7527C60.5539 57.8468 60.189 58.3642 60.2831 58.9084C60.566 60.5446 61.8561 61.3381 62.8261 61.7061V62.9645C62.8261 63.5168 63.2738 63.9645 63.8261 63.9645C64.3784 63.9645 64.8261 63.5168 64.8261 62.9645V61.7537C64.9142 61.7179 64.9913 61.6823 65.0553 61.6519L65.1206 61.6211C65.3366 61.5197 65.6798 61.3585 66.038 61.0907C66.446 60.7856 66.8544 60.3608 67.2317 59.7372C67.5435 59.2221 67.6946 58.6706 67.6585 58.1013C67.623 57.5424 67.412 57.0442 67.1281 56.615C66.5802 55.7866 65.6654 55.0754 64.7355 54.4607C64.2321 54.1279 63.7902 53.7992 63.4448 53.479C63.0908 53.151 62.893 52.8818 62.8063 52.6801C62.7351 52.5144 62.7482 52.428 62.7894 52.3403C62.8515 52.2081 63.0451 51.953 63.5962 51.6277C63.9459 51.4213 64.1854 51.382 64.3395 51.3863C64.4942 51.3906 64.6492 51.4412 64.8255 51.5546C65.011 51.6737 65.198 51.8482 65.4017 52.072C65.5023 52.1826 65.5985 52.2956 65.7006 52.4157L65.7099 52.4266C65.8048 52.5382 65.9105 52.6626 66.0142 52.7749C66.3889 53.1806 67.0216 53.2058 67.4273 52.8311C67.833 52.4564 67.8582 51.8237 67.4835 51.418C67.4098 51.3382 67.3289 51.2432 67.2244 51.1203L67.2229 51.1185C67.1236 51.0017 67.007 50.8646 66.8809 50.726C66.63 50.4502 66.3065 50.1289 65.9069 49.8721C65.6943 49.7354 65.4556 49.6142 65.1913 49.527V47.8699Z" fill="white"/>
<defs>
<filter id="filter0_ii_1013_2" x="12" y="12" width="104" height="105" filterUnits="userSpaceOnUse" color-interpolation-filters="sRGB">
<feFlood flood-opacity="0" result="BackgroundImageFix"/>
<feBlend mode="normal" in="SourceGraphic" in2="BackgroundImageFix" result="shape"/>
<feColorMatrix in="SourceAlpha" type="matrix" values="0 0 0 0 0 0 0 0 0 0 0 0 0 0 0 0 0 0 127 0" result="hardAlpha"/>
<feOffset dy="-4"/>
<feComposite in2="hardAlpha" operator="arithmetic" k2="-1" k3="1"/>
<feColorMatrix type="matrix" values="0 0 0 0 0 0 0 0 0 0 0 0 0 0 0 0 0 0 0.25 0"/>
<feBlend mode="normal" in2="shape" result="effect1_innerShadow_1013_2"/>
<feColorMatrix in="SourceAlpha" type="matrix" values="0 0 0 0 0 0 0 0 0 0 0 0 0 0 0 0 0 0 127 0" result="hardAlpha"/>
<feMorphology radius="1" operator="erode" in="SourceAlpha" result="effect2_innerShadow_1013_2"/>
<feOffset dy="2"/>
<feComposite in2="hardAlpha" operator="arithmetic" k2="-1" k3="1"/>
<feColorMatrix type="matrix" values="0 0 0 0 1 0 0 0 0 1 0 0 0 0 1 0 0 0 0.25 0"/>
<feBlend mode="normal" in2="effect1_innerShadow_1013_2" result="effect2_innerShadow_1013_2"/>
</filter>
<filter id="filter1_d_1013_2" x="72.4878" y="33.1226" width="27.5122" height="69.6077" filterUnits="userSpaceOnUse" color-interpolation-filters="sRGB">
<feFlood flood-opacity="0" result="BackgroundImageFix"/>
<feColorMatrix in="SourceAlpha" type="matrix" values="0 0 0 0 0 0 0 0 0 0 0 0 0 0 0 0 0 0 127 0" result="hardAlpha"/>
<feOffset dy="4"/>
<feGaussianBlur stdDeviation="2"/>
<feComposite in2="hardAlpha" operator="out"/>
<feColorMatrix type="matrix" values="0 0 0 0 0 0 0 0 0 0 0 0 0 0 0 0 0 0 0.25 0"/>
<feBlend mode="normal" in2="BackgroundImageFix" result="effect1_dropShadow_1013_2"/>
<feBlend mode="normal" in="SourceGraphic" in2="effect1_dropShadow_1013_2" result="shape"/>
</filter>
<filter id="filter2_d_1013_2" x="28" y="33.0726" width="28.2927" height="69.7147" filterUnits="userSpaceOnUse" color-interpolation-filters="sRGB">
<feFlood flood-opacity="0" result="BackgroundImageFix"/>
<feColorMatrix in="SourceAlpha" type="matrix" values="0 0 0 0 0 0 0 0 0 0 0 0 0 0 0 0 0 0 127 0" result="hardAlpha"/>
<feOffset dy="4"/>
<feGaussianBlur stdDeviation="2"/>
<feComposite in2="hardAlpha" operator="out"/>
<feColorMatrix type="matrix" values="0 0 0 0 0 0 0 0 0 0 0 0 0 0 0 0 0 0 0.25 0"/>
<feBlend mode="normal" in2="BackgroundImageFix" result="effect1_dropShadow_1013_2"/>
<feBlend mode="normal" in="SourceGraphic" in2="effect1_dropShadow_1013_2" result="shape"/>
</filter>
<filter id="filter3_d_1013_2" x="49.8536" y="33.0726" width="28.2927" height="69.7147" filterUnits="userSpaceOnUse" color-interpolation-filters="sRGB">
<feFlood flood-opacity="0" result="BackgroundImageFix"/>
<feColorMatrix in="SourceAlpha" type="matrix" values="0 0 0 0 0 0 0 0 0 0 0 0 0 0 0 0 0 0 127 0" result="hardAlpha"/>
<feOffset dy="4"/>
<feGaussianBlur stdDeviation="2"/>
<feComposite in2="hardAlpha" operator="out"/>
<feColorMatrix type="matrix" values="0 0 0 0 0 0 0 0 0 0 0 0 0 0 0 0 0 0 0.25 0"/>
<feBlend mode="normal" in2="BackgroundImageFix" result="effect1_dropShadow_1013_2"/>
<feBlend mode="normal" in="SourceGraphic" in2="effect1_dropShadow_1013_2" result="shape"/>
</filter>
<linearGradient id="paint0_linear_1013_2" x1="33.125" y1="12" x2="94.875" y2="116" gradientUnits="userSpaceOnUse">
<stop stop-color="#5A41FF"/>
<stop offset="1" stop-color="#5D52A0"/>
</linearGradient>
</defs>
</svg>
