<svg width="16" height="16" viewBox="0 0 16 16" fill="none" xmlns="http://www.w3.org/2000/svg">
<path fill-rule="evenodd" clip-rule="evenodd" d="M8.5632 5.5C8.5632 5.22386 8.33934 5 8.0632 5C7.78706 5 7.5632 5.22386 7.5632 5.5V5.95388C7.51705 5.97381 7.47095 5.99619 7.4249 6.02098C7.15272 6.16754 6.91214 6.35601 6.77955 6.61353C6.63127 6.90151 6.65772 7.19565 6.77293 7.44029C6.87747 7.66229 7.05286 7.8439 7.22167 7.98662C7.39616 8.13414 7.59994 8.27002 7.80245 8.39215C8.12872 8.58891 8.33084 8.751 8.42335 8.8786C8.45334 8.91996 8.4607 8.94292 8.46234 8.94977C8.46068 8.95571 8.45559 8.96859 8.44139 8.99C8.35793 9.11583 8.2817 9.17898 8.22182 9.21757C8.07564 9.31177 7.89012 9.32532 7.78225 9.27979C7.58214 9.19534 7.5077 9.09982 7.49135 9.01352C7.43993 8.74221 7.17831 8.56395 6.90699 8.61537C6.63568 8.66678 6.45742 8.92841 6.50883 9.19972C6.61762 9.77376 7.07154 10.0653 7.39342 10.2011C7.40566 10.2063 7.41794 10.2112 7.43027 10.216V10.5092C7.43027 10.7853 7.65412 11.0092 7.93027 11.0092C8.20641 11.0092 8.43027 10.7853 8.43027 10.5092V10.2191C8.54988 10.1779 8.66246 10.1233 8.76351 10.0581C8.93704 9.94632 9.11341 9.78597 9.27473 9.54275C9.40588 9.34503 9.47692 9.12087 9.46027 8.88163C9.44408 8.64919 9.34853 8.45104 9.23297 8.29165C9.01316 7.98846 8.6571 7.73979 8.31888 7.53582C8.13851 7.42704 7.98472 7.32224 7.8673 7.22297C7.77156 7.14202 7.71951 7.08091 7.69372 7.04205C7.72297 7.01304 7.78293 6.96395 7.89899 6.90146C8.01 6.84168 8.07856 6.83411 8.11464 6.83502C8.15075 6.83593 8.18888 6.84624 8.23777 6.8749C8.29091 6.90606 8.34891 6.95435 8.4186 7.02422C8.45306 7.05878 8.48632 7.09437 8.52366 7.13444L8.52775 7.13884C8.56173 7.1753 8.60215 7.21868 8.64224 7.25829C8.8387 7.45235 9.15527 7.45041 9.34933 7.25395C9.54339 7.05749 9.54145 6.74092 9.34499 6.54686C9.32092 6.52308 9.29383 6.49411 9.25525 6.4527L9.25415 6.45152L9.25414 6.45151L9.25414 6.45151C9.2183 6.41305 9.17436 6.3659 9.12664 6.31805C9.03096 6.22211 8.90327 6.10589 8.74357 6.01225C8.68781 5.97956 8.62766 5.94933 8.5632 5.92344V5.5ZM8.46301 8.94582C8.46313 8.94579 8.46311 8.94673 8.46261 8.94875C8.46264 8.94686 8.46289 8.94585 8.46301 8.94582Z" fill="black"/>
<g style="mix-blend-mode:hard-light">
<path d="M5 3.6875L1 2V12.125L5 14V3.6875Z" stroke="black" stroke-linejoin="round"/>
</g>
<g style="mix-blend-mode:hard-light">
<path d="M11 12.125L5 14V3.6875L11 2V12.125Z" stroke="black" stroke-linejoin="round"/>
</g>
<g style="mix-blend-mode:hard-light">
<path d="M15 3.6875L11 2V12.125L15 14V3.6875Z" stroke="black" stroke-linejoin="round"/>
</g>
</svg>
