<svg width="128" height="128" viewBox="0 0 128 128" fill="none" xmlns="http://www.w3.org/2000/svg">
<g clip-path="url(#clip0_1013_2)">
<g filter="url(#filter0_ii_1013_2)">
<rect width="128" height="128" rx="24" fill="url(#paint0_linear_1013_2)"/>
</g>
<g filter="url(#filter1_d_1013_2)">
<path d="M103.838 33.9951L82.8377 24.3089C81.5125 23.6976 80 24.6656 80 26.125V90.9651C80 91.7155 80.42 92.4028 81.0878 92.745L102.088 103.508C103.419 104.19 105 103.223 105 101.728V35.8112C105 35.031 104.546 34.3219 103.838 33.9951Z" fill="#FAFAFA"/>
</g>
<g filter="url(#filter2_d_1013_2)">
<path d="M47.8108 34.0038L25.8108 24.2466C24.4884 23.6601 23 24.6283 23 26.0749V90.9434C23 91.7051 23.4327 92.4007 24.1159 92.7374L46.1159 103.579C47.445 104.234 49 103.266 49 101.785V35.8321C49 35.0412 48.5339 34.3245 47.8108 34.0038Z" fill="#FAFAFA"/>
</g>
<g style="mix-blend-mode:overlay" filter="url(#filter3_d_1013_2)">
<path d="M75.8841 92.7374L53.8841 103.579C52.555 104.234 51 103.266 51 101.785V35.8321C51 35.0412 51.4661 34.3245 52.1892 34.0039L74.1891 24.2466C75.5116 23.6601 77 24.6283 77 26.0749V90.9434C77 91.7051 76.5673 92.4007 75.8841 92.7374Z" fill="#FAFAFA"/>
</g>
<path d="M28 37L43 43" stroke="#9289D3" stroke-width="2" stroke-linecap="round"/>
<path d="M28 45L39 50" stroke="#9289D3" stroke-width="2" stroke-linecap="round"/>
<path d="M28 53L43 60" stroke="#9289D3" stroke-width="2" stroke-linecap="round"/>
<path d="M71 79L57 86" stroke="#4D409F" stroke-width="2" stroke-linecap="round"/>
<path d="M71 86L57 93" stroke="#4D409F" stroke-width="2" stroke-linecap="round"/>
<path d="M85 78.2653L95.5 83.5714" stroke="#9289D3" stroke-width="2" stroke-linecap="round"/>
<path d="M85 70.9592L99 77.3265" stroke="#9289D3" stroke-width="2" stroke-linecap="round"/>
<path d="M85 86.5714L99 94" stroke="#9289D3" stroke-width="2" stroke-linecap="round"/>
<path d="M96.172 54.8158L86.172 50.2677C85.4582 49.9431 85 49.2313 85 48.4472V40.1068C85 38.652 86.5038 37.6839 87.828 38.2862L97.828 42.8343C98.5418 43.1589 99 43.8707 99 44.6549V52.9953C99 54.4501 97.4962 55.4181 96.172 54.8158Z" fill="#9289D3"/>
<path d="M96.172 70.7342L86.172 66.1861C85.4582 65.8615 85 65.1497 85 64.3655V56.0251C85 54.5704 86.5038 53.6023 87.828 54.2046L97.828 58.7527C98.5418 59.0773 99 59.7891 99 60.5732V68.9136C99 70.3684 97.4962 71.3365 96.172 70.7342Z" fill="#9289D3"/>
<path d="M69.4855 32.2559L57.9709 36.9664C54.9643 38.1964 53 41.1224 53 44.3708V70.9702C53 73.8323 55.9184 75.7683 58.5553 74.6554L70.1107 69.7785C73.0739 68.5279 75 65.6243 75 62.408V35.9581C75 33.1149 72.117 31.1794 69.4855 32.2559Z" fill="#4D409F"/>
<path d="M41.0334 93.5016L29.9593 88.6308C29.6247 88.4837 29.3971 88.1657 29.3656 87.8016L28.1512 73.7495C28.0845 72.9773 28.8836 72.426 29.5818 72.7626L44.298 79.8576C44.7107 80.0566 44.9354 80.5106 44.8433 80.9595L42.4156 92.7872C42.2875 93.4112 41.6165 93.758 41.0334 93.5016Z" fill="#9289D3"/>
<path d="M32 78.6667V71.5914C32 70.8545 32.7699 70.3707 33.4338 70.6904L40.4338 74.0607C40.7799 74.2274 41 74.5776 41 74.9617V83" stroke="#9288D3" stroke-width="2"/>
<path fill-rule="evenodd" clip-rule="evenodd" d="M65.2451 43.3333C65.2451 42.7811 64.7974 42.3333 64.2451 42.3333C63.6928 42.3333 63.2451 42.7811 63.2451 43.3333V45.755C62.941 45.8575 62.6336 46.0001 62.3231 46.1833C61.4157 46.7189 60.7361 47.3415 60.384 48.0911C60.0109 48.8853 60.0687 49.685 60.3745 50.3969C60.665 51.0729 61.1766 51.673 61.738 52.1932C62.3079 52.7214 62.9872 53.2199 63.6843 53.6807C64.8381 54.4434 65.6736 55.144 66.105 55.7963C66.3108 56.1074 66.3967 56.3668 66.4107 56.5869C66.424 56.7968 66.3773 57.0459 66.1889 57.3572C65.8268 57.9556 65.4751 58.2848 65.1777 58.4943C64.9385 58.6629 64.744 58.7548 64.5103 58.8652C64.4207 58.9075 64.3253 58.9526 64.2195 59.0057C64.0992 59.0661 64.0163 59.0983 63.9579 59.113C63.9435 59.1167 63.9333 59.1186 63.9268 59.1195C63.4501 59.005 62.8708 58.7959 62.3941 58.4552C61.9258 58.1205 61.589 57.6863 61.4855 57.0878C61.3915 56.5436 60.874 56.1787 60.3298 56.2727C59.7856 56.3668 59.4207 56.8843 59.5148 57.4285C59.7289 58.6668 60.4469 59.5217 61.2311 60.0823C61.7375 60.4442 62.2838 60.6941 62.7771 60.8648V62.6733C62.7771 63.2256 63.2249 63.6733 63.7771 63.6733C64.3294 63.6733 64.7771 63.2256 64.7771 62.6733V60.9463C64.9125 60.8936 65.0275 60.8379 65.1167 60.7931C65.1576 60.7726 65.2099 60.7481 65.2713 60.7193L65.2715 60.7192L65.2717 60.7191C65.5251 60.6002 65.933 60.4088 66.3298 60.1291C66.8566 59.7579 67.3973 59.2233 67.9 58.3926C68.2733 57.7756 68.4489 57.1254 68.4067 56.4602C68.3651 55.8052 68.1175 55.2136 67.7732 54.693C67.1046 53.6821 65.974 52.7969 64.7872 52.0123C64.1358 51.5817 63.5557 51.151 63.0974 50.7263C62.6306 50.2937 62.3453 49.9173 62.2121 49.6074C62.0944 49.3335 62.102 49.1378 62.1942 48.9414C62.3074 48.7005 62.6087 48.3372 63.3397 47.9057C63.8242 47.6198 64.1827 47.5503 64.4427 47.5575C64.7034 47.5647 64.9511 47.6514 65.2097 47.8176C65.4774 47.9897 65.7362 48.2339 66.0038 48.528C66.1364 48.6737 66.2626 48.8219 66.3931 48.9754L66.4036 48.9877L66.4036 48.9877L66.4036 48.9878C66.5263 49.1321 66.6584 49.2874 66.7873 49.427C67.162 49.8327 67.7946 49.8579 68.2004 49.4832C68.6061 49.1085 68.6312 48.4758 68.2565 48.0701C68.1574 47.9627 68.0497 47.8363 67.9169 47.68L67.9161 47.679C67.7883 47.5287 67.6414 47.356 67.4831 47.182C67.1682 46.8359 66.773 46.4449 66.2911 46.1352C65.9841 45.9379 65.6355 45.7694 65.2451 45.6661V43.3333Z" fill="white"/>
</g>
<defs>
<filter id="filter0_ii_1013_2" x="0" y="0" width="128" height="129" filterUnits="userSpaceOnUse" color-interpolation-filters="sRGB">
<feFlood flood-opacity="0" result="BackgroundImageFix"/>
<feBlend mode="normal" in="SourceGraphic" in2="BackgroundImageFix" result="shape"/>
<feColorMatrix in="SourceAlpha" type="matrix" values="0 0 0 0 0 0 0 0 0 0 0 0 0 0 0 0 0 0 127 0" result="hardAlpha"/>
<feOffset dy="-4"/>
<feComposite in2="hardAlpha" operator="arithmetic" k2="-1" k3="1"/>
<feColorMatrix type="matrix" values="0 0 0 0 0 0 0 0 0 0 0 0 0 0 0 0 0 0 0.25 0"/>
<feBlend mode="normal" in2="shape" result="effect1_innerShadow_1013_2"/>
<feColorMatrix in="SourceAlpha" type="matrix" values="0 0 0 0 0 0 0 0 0 0 0 0 0 0 0 0 0 0 127 0" result="hardAlpha"/>
<feMorphology radius="1" operator="erode" in="SourceAlpha" result="effect2_innerShadow_1013_2"/>
<feOffset dy="2"/>
<feComposite in2="hardAlpha" operator="arithmetic" k2="-1" k3="1"/>
<feColorMatrix type="matrix" values="0 0 0 0 1 0 0 0 0 1 0 0 0 0 1 0 0 0 0.25 0"/>
<feBlend mode="normal" in2="effect1_innerShadow_1013_2" result="effect2_innerShadow_1013_2"/>
</filter>
<filter id="filter1_d_1013_2" x="76" y="24.1227" width="33" height="87.6076" filterUnits="userSpaceOnUse" color-interpolation-filters="sRGB">
<feFlood flood-opacity="0" result="BackgroundImageFix"/>
<feColorMatrix in="SourceAlpha" type="matrix" values="0 0 0 0 0 0 0 0 0 0 0 0 0 0 0 0 0 0 127 0" result="hardAlpha"/>
<feOffset dy="4"/>
<feGaussianBlur stdDeviation="2"/>
<feComposite in2="hardAlpha" operator="out"/>
<feColorMatrix type="matrix" values="0 0 0 0 0 0 0 0 0 0 0 0 0 0 0 0 0 0 0.25 0"/>
<feBlend mode="normal" in2="BackgroundImageFix" result="effect1_dropShadow_1013_2"/>
<feBlend mode="normal" in="SourceGraphic" in2="effect1_dropShadow_1013_2" result="shape"/>
</filter>
<filter id="filter2_d_1013_2" x="19" y="24.0727" width="34" height="87.7146" filterUnits="userSpaceOnUse" color-interpolation-filters="sRGB">
<feFlood flood-opacity="0" result="BackgroundImageFix"/>
<feColorMatrix in="SourceAlpha" type="matrix" values="0 0 0 0 0 0 0 0 0 0 0 0 0 0 0 0 0 0 127 0" result="hardAlpha"/>
<feOffset dy="4"/>
<feGaussianBlur stdDeviation="2"/>
<feComposite in2="hardAlpha" operator="out"/>
<feColorMatrix type="matrix" values="0 0 0 0 0 0 0 0 0 0 0 0 0 0 0 0 0 0 0.25 0"/>
<feBlend mode="normal" in2="BackgroundImageFix" result="effect1_dropShadow_1013_2"/>
<feBlend mode="normal" in="SourceGraphic" in2="effect1_dropShadow_1013_2" result="shape"/>
</filter>
<filter id="filter3_d_1013_2" x="47" y="24.0726" width="34" height="87.7147" filterUnits="userSpaceOnUse" color-interpolation-filters="sRGB">
<feFlood flood-opacity="0" result="BackgroundImageFix"/>
<feColorMatrix in="SourceAlpha" type="matrix" values="0 0 0 0 0 0 0 0 0 0 0 0 0 0 0 0 0 0 127 0" result="hardAlpha"/>
<feOffset dy="4"/>
<feGaussianBlur stdDeviation="2"/>
<feComposite in2="hardAlpha" operator="out"/>
<feColorMatrix type="matrix" values="0 0 0 0 0 0 0 0 0 0 0 0 0 0 0 0 0 0 0.25 0"/>
<feBlend mode="normal" in2="BackgroundImageFix" result="effect1_dropShadow_1013_2"/>
<feBlend mode="normal" in="SourceGraphic" in2="effect1_dropShadow_1013_2" result="shape"/>
</filter>
<linearGradient id="paint0_linear_1013_2" x1="26" y1="-1.48267e-06" x2="102" y2="128" gradientUnits="userSpaceOnUse">
<stop stop-color="#5A41FF"/>
<stop offset="1" stop-color="#5D52A0"/>
</linearGradient>
<clipPath id="clip0_1013_2">
<rect width="128" height="128" rx="24" fill="white"/>
</clipPath>
</defs>
</svg>
